<svg width="108" height="106" viewBox="0 0 108 106" fill="none" xmlns="http://www.w3.org/2000/svg">
<rect width="108" height="106" rx="50" fill="#3C285E"/>
<path d="M97.8076 86.75H11.1924L54.5 9.50977L97.8076 86.75Z" stroke="#BBC9DC" stroke-width="0.5"/>
<path d="M12.0694 19.2538L98.6844 19.0604L55.5494 96.3972L12.0694 19.2538Z" stroke="#BBC9DC" stroke-width="0.5"/>
<path d="M80.308 95.0746L4.71 52.8L80.208 6.52187L80.308 95.0746Z" stroke="#BBC9DC" stroke-width="0.5"/>
<path d="M30.1014 7.21746L104.421 51.7004L27.5932 95.7348L30.1014 7.21746Z" stroke="#BBC9DC" stroke-width="0.5"/>
<path fill-rule="evenodd" clip-rule="evenodd" d="M75.6161 42.5067C75.2985 41.3084 74.0662 41.3084 73.7486 42.5067L72.3076 47.9516L68.346 49.9321C67.4742 50.3686 67.4742 52.0623 68.346 52.4988L72.3076 54.4794L73.7486 59.9243C74.0662 61.1225 75.2985 61.1225 75.6161 59.9243L77.0571 54.4794L81.0187 52.4988C81.8906 52.0623 81.8906 50.3686 81.0187 49.9321L77.0571 47.9516L75.6161 42.5067Z" fill="#BBC9DC"/>
<path d="M35.4754 34.3815C35.1139 33.5336 34.5918 32.8364 33.9649 32.3642C33.3379 31.8921 32.6296 31.6627 31.9154 31.7006C31.2013 31.7385 30.5081 32.0422 29.9099 32.5793C29.3116 33.1164 28.8307 33.8668 28.5185 34.7505C28.2063 35.6341 28.0745 36.6178 28.1371 37.5967C28.1996 38.5755 28.4543 39.5128 28.8739 40.3086C29.2935 41.1043 29.8623 41.7286 30.5196 42.115C31.1769 42.5013 31.898 42.6352 32.6061 42.5022C32.9534 42.4371 33.071 41.8285 32.7931 41.535C32.3175 41.0316 31.9852 40.315 31.8539 39.5098C31.7226 38.7047 31.8007 37.8619 32.0746 37.128C32.3485 36.3941 32.8008 35.8156 33.353 35.4929C33.9051 35.1702 34.5222 35.1239 35.0969 35.3619L35.1395 35.3761C35.4641 35.4614 35.725 34.9757 35.5512 34.5677L35.4981 34.4431L35.4865 34.4096L35.4754 34.3815Z" fill="#BBC9DC"/>
<path d="M74.3451 75.0871C68.6199 75.0871 63.6776 73.1367 60.2033 68.3616C61.916 66.7475 62.9436 63.7883 63.4329 60.7619H64.1669C67.2986 70.7828 72.8771 74.3473 78.5044 72.3297C84.8168 69.9757 88.389 60.4256 85.7466 46.8401C83.1042 33.2547 76.4981 27.4035 70.1857 29.7574C64.5584 31.7751 61.182 39.3749 62.1117 50.3374C63.2372 67.7563 47.6274 74.8181 38.5257 74.8181C24.5797 74.8181 18.3651 65.8732 16.0653 70.7828L15.2334 69.774L22.133 53.9691H22.7692C21.8884 60.9636 25.1669 72.4642 38.5257 72.4642C48.2635 72.4642 55.3589 68.8997 55.3589 50.3374C55.6525 35.4741 63.9712 27 74.3451 27C84.8168 27 93.2334 35.7431 93.2334 51.0772C93.2334 63.452 87.7039 71.5226 80.0703 74.1455C86.8231 76.8357 90.6399 83.0232 90.6399 88H82.8106C82.8106 82.6869 81.783 75.1544 74.4429 75.0871H74.3451ZM34.5132 27C41.0214 27 46.3551 30.7663 48.1167 31.9096C50.0741 33.1874 51.0527 32.2459 51.591 31.1025L52.4229 32.1114L45.0339 47.2437H44.3978C46.1594 37.4245 40.9724 30.161 34.5132 29.6229C28.9837 29.6229 25.6073 33.1202 25.6073 37.4245C25.6562 47.3109 51.2974 46.1003 51.2974 59.0805C51.2974 64.1246 48.8996 67.2183 44.4956 67.2183V66.5458C44.8382 65.3352 45.0828 64.7971 45.0828 63.7883C45.0828 52.8931 20.0289 57.6681 20.0289 40.1819C20.0289 31.1025 26.4881 27 34.5132 27Z" fill="#BBC9DC"/>
</svg>
