<svg width="192" height="192" viewBox="0 0 192 192" fill="none" xmlns="http://www.w3.org/2000/svg">
  <rect width="192" height="192" rx="48" fill="#3C285E"/>
  <path d="M154.958 143.822H37.042L96 38.733L154.958 143.822Z" stroke="#BBC9DC" stroke-width="1"/>
  <path d="M38.235 52.515L156.151 52.252L97.433 157.435L38.235 52.515Z" stroke="#BBC9DC" stroke-width="1"/>
  <path d="M131.02 155.637L28.174 98.137L130.884 35.201L131.02 155.637Z" stroke="#BBC9DC" stroke-width="1"/>
  <path d="M62.537 36.148L163.644 96.652L59.122 156.535L62.537 36.148Z" stroke="#BBC9DC" stroke-width="1"/>
  <path fill-rule="evenodd" clip-rule="evenodd" d="M125.228 82.049C124.808 80.464 123.178 80.464 122.758 82.049L120.852 89.252L115.613 91.871C114.46 92.448 114.46 94.689 115.613 95.266L120.852 97.886L122.758 105.089C123.178 106.674 124.808 106.674 125.228 105.089L127.134 97.886L132.373 95.266C133.525 94.689 133.525 92.448 132.373 91.871L127.134 89.252L125.228 82.049Z" fill="#BBC9DC"/>
</svg>
