<svg width="512" height="512" viewBox="0 0 512 512" fill="none" xmlns="http://www.w3.org/2000/svg">
  <rect width="512" height="512" rx="128" fill="#3C285E"/>
  <path d="M413.222 383.526H98.778L256 103.288L413.222 383.526Z" stroke="#BBC9DC" stroke-width="2"/>
  <path d="M101.96 140.041L416.404 139.339L259.821 419.827L101.96 140.041Z" stroke="#BBC9DC" stroke-width="2"/>
  <path d="M349.386 414.499L75.13 261.166L349.023 93.318L349.386 414.499Z" stroke="#BBC9DC" stroke-width="2"/>
  <path d="M166.767 95.842L436.384 257.205L157.661 416.611L166.767 95.842Z" stroke="#BBC9DC" stroke-width="2"/>
  <path fill-rule="evenodd" clip-rule="evenodd" d="M333.942 218.797C332.821 214.57 328.473 214.57 327.353 218.797L322.271 237.999L308.301 244.984C305.227 246.521 305.227 252.498 308.301 254.035L322.271 261.02L327.353 280.222C328.473 284.449 332.821 284.449 333.942 280.222L339.024 261.02L352.994 254.035C356.067 252.498 356.067 246.521 352.994 244.984L339.024 237.999L333.942 218.797Z" fill="#BBC9DC"/>
</svg>
