<svg width="141" height="142" viewBox="0 0 141 142" fill="none" xmlns="http://www.w3.org/2000/svg">
<path d="M113.808 105.75H27.1924L70.5 28.5098L113.808 105.75Z" stroke="#BBC9DC" stroke-width="0.5"/>
<path d="M28.0694 38.2538L114.684 38.0604L71.5494 115.397L28.0694 38.2538Z" stroke="#BBC9DC" stroke-width="0.5"/>
<path d="M96.308 114.075L20.71 71.8L96.208 25.5219L96.308 114.075Z" stroke="#BBC9DC" stroke-width="0.5"/>
<path d="M46.1014 26.2175L120.421 70.7004L43.5932 114.735L46.1014 26.2175Z" stroke="#BBC9DC" stroke-width="0.5"/>
<path fill-rule="evenodd" clip-rule="evenodd" d="M91.3827 61.5067C91.0651 60.3084 89.8328 60.3084 89.5152 61.5067L88.0742 66.9516L84.1126 68.9321C83.2408 69.3686 83.2408 71.0623 84.1126 71.4988L88.0742 73.4794L89.5152 78.9243C89.8328 80.1225 91.0651 80.1225 91.3827 78.9243L92.8237 73.4794L96.7853 71.4988C97.6572 71.0623 97.6572 69.3686 96.7853 68.9321L92.8237 66.9516L91.3827 61.5067Z" fill="#BBC9DC"/>
<path d="M51.242 53.3815C50.8805 52.5336 50.3584 51.8364 49.7315 51.3642C49.1045 50.8921 48.3962 50.6627 47.682 50.7006C46.9679 50.7385 46.2747 51.0422 45.6765 51.5793C45.0782 52.1164 44.5973 52.8668 44.2851 53.7505C43.9729 54.6341 43.8411 55.6178 43.9037 56.5967C43.9662 57.5755 44.2209 58.5128 44.6405 59.3086C45.0601 60.1043 45.6289 60.7286 46.2862 61.115C46.9435 61.5013 47.6646 61.6352 48.3727 61.5022C48.72 61.4371 48.8376 60.8285 48.5597 60.535C48.0841 60.0316 47.7518 59.315 47.6205 58.5098C47.4892 57.7047 47.5673 56.8619 47.8412 56.128C48.1151 55.3941 48.5674 54.8156 49.1196 54.4929C49.6717 54.1702 50.2888 54.1239 50.8635 54.3619L50.9061 54.3761C51.2307 54.4614 51.4916 53.9757 51.3178 53.5677L51.2647 53.4431L51.2531 53.4096L51.242 53.3815Z" fill="#BBC9DC"/>
<path d="M90.1117 94.0871C84.3865 94.0871 79.4442 92.1367 75.9699 87.3616C77.6826 85.7475 78.7102 82.7883 79.1995 79.7618H79.9335C83.0652 89.7828 88.6437 93.3473 94.271 91.3297C100.583 88.9757 104.156 79.4256 101.513 65.8401C98.8708 52.2547 92.2647 46.4035 85.9523 48.7574C80.325 50.7751 76.9486 58.3749 77.8783 69.3374C79.0038 86.7563 63.394 93.8181 54.2923 93.8181C40.3463 93.8181 34.1317 84.8732 31.8319 89.7828L31 88.774L37.8996 72.9691H38.5358C37.655 79.9636 40.9335 91.4642 54.2923 91.4642C64.0301 91.4642 71.1255 87.8997 71.1255 69.3374C71.4191 54.4741 79.7378 46 90.1117 46C100.583 46 109 54.7431 109 70.0772C109 82.452 103.471 90.5226 95.8369 93.1455C102.59 95.8357 106.407 102.023 106.407 107H98.5772C98.5772 101.687 97.5496 94.1544 90.2095 94.0871H90.1117ZM50.2798 46C56.788 46 62.1217 49.7663 63.8833 50.9096C65.8407 52.1874 66.8193 51.2459 67.3576 50.1025L68.1895 51.1114L60.8005 66.2437H60.1644C61.926 56.4245 56.739 49.161 50.2798 48.6229C44.7503 48.6229 41.3739 52.1202 41.3739 56.4245C41.4228 66.3109 67.064 65.1003 67.064 78.0805C67.064 83.1246 64.6662 86.2183 60.2622 86.2183V85.5458C60.6048 84.3352 60.8494 83.7971 60.8494 82.7883C60.8494 71.8931 35.7955 76.6681 35.7955 59.1819C35.7955 50.1025 42.2547 46 50.2798 46Z" fill="#BBC9DC"/>
</svg>
