<svg width="295" height="295" viewBox="0 0 295 295" fill="none" xmlns="http://www.w3.org/2000/svg">
<circle cx="149.075" cy="147.253" r="106" stroke="#BBC9DC" stroke-width="5"/>
<circle cx="149.075" cy="147.253" r="106.5" stroke="#BBC9DC" stroke-width="4"/>
<path d="M149.548 53.7661C153.515 53.8274 157.422 54.1346 161.254 54.6753L161.151 55.4175C164.058 55.8277 166.923 56.3731 169.737 57.0464L169.911 56.3179C171.822 56.7752 173.711 57.291 175.575 57.8638L175.356 58.5806C176.287 58.8666 177.212 59.1667 178.129 59.481L178.371 58.772C182.098 60.0479 185.719 61.553 189.217 63.27L188.887 63.9419C191.511 65.2295 194.065 66.6376 196.542 68.1587L196.932 67.52C198.604 68.5465 200.24 69.624 201.84 70.7505L201.41 71.3628C202.204 71.9222 202.989 72.4942 203.765 73.0776L204.215 72.479C207.349 74.8358 210.331 77.3847 213.141 80.1089L212.621 80.647C214.713 82.6749 216.71 84.8011 218.604 87.0171L219.173 86.5298C220.445 88.0174 221.67 89.5457 222.848 91.1118L222.252 91.563C222.835 92.3387 223.406 93.1241 223.965 93.9185L224.577 93.4868C226.826 96.6811 228.88 100.022 230.722 103.494L230.061 103.845C231.422 106.411 232.666 109.049 233.787 111.75L234.478 111.462C235.226 113.266 235.919 115.098 236.555 116.957L235.847 117.199C236.161 118.117 236.462 119.041 236.748 119.972L237.463 119.752C238.604 123.465 239.52 127.276 240.195 131.169L239.458 131.298C239.951 134.146 240.315 137.038 240.543 139.968L241.29 139.911C241.44 141.851 241.531 143.807 241.561 145.779L240.813 145.791C240.821 146.277 240.825 146.765 240.825 147.253C240.825 147.742 240.821 148.23 240.813 148.716L241.561 148.727C241.5 152.694 241.193 156.601 240.652 160.433L239.911 160.33C239.5 163.237 238.955 166.101 238.282 168.916L239.009 169.089C238.552 171.001 238.036 172.89 237.463 174.753L236.748 174.535C236.462 175.465 236.161 176.39 235.847 177.308L236.555 177.549C235.279 181.277 233.774 184.898 232.057 188.396L231.386 188.066C230.099 190.689 228.691 193.243 227.169 195.72L227.807 196.111C226.781 197.782 225.703 199.419 224.577 201.019L223.965 200.588C223.406 201.383 222.834 202.168 222.251 202.944L222.848 203.394C220.491 206.528 217.943 209.509 215.218 212.32L214.681 211.799C212.653 213.892 210.527 215.888 208.311 217.783L208.797 218.352C207.31 219.624 205.782 220.849 204.215 222.027L203.765 221.43C202.989 222.014 202.204 222.585 201.41 223.144L201.84 223.755C198.646 226.005 195.305 228.059 191.834 229.901L191.483 229.24C188.917 230.601 186.279 231.845 183.578 232.965L183.865 233.657C182.061 234.405 180.229 235.098 178.371 235.734L178.129 235.026C177.212 235.34 176.287 235.64 175.356 235.926L175.575 236.642C171.862 237.783 168.051 238.699 164.158 239.374L164.03 238.636C161.182 239.13 158.29 239.494 155.36 239.721L155.417 240.468C153.477 240.619 151.52 240.709 149.548 240.74L149.538 239.992C149.051 239.999 148.563 240.003 148.075 240.003C147.586 240.003 147.099 239.999 146.612 239.992L146.6 240.74C142.633 240.678 138.726 240.371 134.894 239.831L134.999 239.089C132.091 238.679 129.227 238.134 126.413 237.46L126.238 238.188C124.326 237.731 122.438 237.215 120.574 236.642L120.794 235.926C119.863 235.64 118.938 235.34 118.02 235.026L117.778 235.734C114.05 234.458 110.429 232.953 106.931 231.236L107.262 230.565C104.639 229.277 102.085 227.869 99.608 226.348L99.2164 226.986C97.5448 225.959 95.9081 224.882 94.3082 223.755L94.7398 223.144C93.9453 222.585 93.1602 222.013 92.3843 221.429L91.9332 222.027C88.7991 219.67 85.8179 217.121 83.0074 214.397L83.5289 213.86C81.4366 211.832 79.4399 209.706 77.5455 207.49L76.9752 207.976C75.7035 206.488 74.4781 204.96 73.3004 203.394L73.898 202.944C73.3147 202.168 72.7434 201.383 72.1841 200.588L71.5718 201.019C69.3227 197.825 67.2681 194.484 65.4263 191.012L66.0884 190.662C64.7271 188.096 63.4832 185.458 62.3629 182.756L61.6705 183.043C60.9226 181.24 60.2295 179.408 59.5933 177.549L60.3023 177.308C59.9881 176.39 59.6879 175.465 59.4019 174.535L58.6851 174.753C57.5444 171.041 56.6287 167.23 55.9537 163.336L56.692 163.208C56.1983 160.361 55.8347 157.469 55.607 154.539L54.8589 154.595C54.7083 152.655 54.6179 150.699 54.5875 148.727L55.3365 148.716C55.329 148.23 55.3248 147.742 55.3248 147.253C55.3248 146.765 55.329 146.277 55.3365 145.791L54.5875 145.779C54.6488 141.812 54.9559 137.905 55.4966 134.073L56.2388 134.177C56.6491 131.27 57.1944 128.406 57.8677 125.591L57.1392 125.417C57.5966 123.505 58.1124 121.616 58.6851 119.752L59.4019 119.972C59.6879 119.041 59.9881 118.117 60.3023 117.199L59.5933 116.957C60.8693 113.229 62.3743 109.608 64.0914 106.11L64.7632 106.441C66.0509 103.817 67.459 101.264 68.98 98.7866L68.3414 98.395C69.3678 96.7235 70.4454 95.0867 71.5718 93.4868L72.1841 93.9185C72.7435 93.124 73.3155 92.3389 73.899 91.563L73.3004 91.1118C75.6572 87.9778 78.2061 84.9966 80.9302 82.186L81.4683 82.7075C83.4963 80.6152 85.6224 78.6185 87.8384 76.7241L87.3511 76.1538C88.8387 74.8821 90.367 73.6568 91.9332 72.479L92.3843 73.0767C93.1601 72.4933 93.9455 71.9221 94.7398 71.3628L94.3082 70.7505C97.5025 68.5014 100.844 66.4468 104.315 64.605L104.667 65.2671C107.232 63.9058 109.87 62.6619 112.572 61.5415L112.284 60.8491C114.087 60.1012 115.919 59.4082 117.778 58.772L118.02 59.481C118.938 59.1667 119.863 58.8666 120.794 58.5806L120.574 57.8638C124.286 56.723 128.097 55.8074 131.991 55.1323L132.12 55.8706C134.967 55.377 137.859 55.0133 140.79 54.7856L140.732 54.0376C142.672 53.8869 144.629 53.7966 146.6 53.7661L146.612 54.5151C147.099 54.5076 147.586 54.5034 148.075 54.5034C148.563 54.5034 149.051 54.5076 149.538 54.5151L149.548 53.7661Z" stroke="#BBC9DC" stroke-width="1.5" stroke-dasharray="3 6 9 12"/>
<circle cx="148.575" cy="147.753" r="116.5" stroke="#BBC9DC" stroke-dasharray="4 4"/>
<circle cx="148.075" cy="147.253" r="123.5" stroke="#BBC9DC" stroke-width="2"/>
<path d="M147.075 63.7534C193.196 63.7534 230.575 100.919 230.575 146.753C230.575 192.587 193.196 229.753 147.075 229.753C100.953 229.753 63.5748 192.587 63.5748 146.753C63.5748 100.919 100.953 63.7534 147.075 63.7534Z" stroke="#BBC9DC" stroke-width="2"/>
<path d="M191.382 182.503H104.767L148.075 105.263L191.382 182.503Z" stroke="#BBC9DC" stroke-width="0.5"/>
<path d="M105.644 115.007L192.259 114.814L149.124 192.151L105.644 115.007Z" stroke="#BBC9DC" stroke-width="0.5"/>
<path d="M173.883 190.828L98.2848 148.553L173.783 102.275L173.883 190.828Z" stroke="#BBC9DC" stroke-width="0.5"/>
<path d="M123.676 102.971L197.996 147.454L121.168 191.488L123.676 102.971Z" stroke="#BBC9DC" stroke-width="0.5"/>
<g clip-path="url(#clip0_112_2)">
<path fill-rule="evenodd" clip-rule="evenodd" d="M149.51 77.4084C149.192 76.5354 147.958 76.5354 147.64 77.4084L146.197 81.3754L142.23 82.8184C141.357 83.1364 141.357 84.3704 142.23 84.6884L146.197 86.1314L147.64 90.0984C147.958 90.9714 149.192 90.9714 149.51 90.0984L150.953 86.1314L154.92 84.6884C155.793 84.3704 155.793 83.1364 154.92 82.8184L150.953 81.3754L149.51 77.4084Z" fill="#BBC9DC"/>
</g>
<path fill-rule="evenodd" clip-rule="evenodd" d="M83.5095 140.408C83.1915 139.535 81.9575 139.535 81.6395 140.408L80.1965 144.375L76.2295 145.818C75.3565 146.136 75.3565 147.37 76.2295 147.688L80.1965 149.131L81.6395 153.098C81.9575 153.971 83.1915 153.971 83.5095 153.098L84.9525 149.131L88.9195 147.688C89.7925 147.37 89.7925 146.136 88.9195 145.818L84.9525 144.375L83.5095 140.408Z" fill="#BBC9DC"/>
<path fill-rule="evenodd" clip-rule="evenodd" d="M215.51 141.408C215.192 140.535 213.958 140.535 213.64 141.408L212.197 145.375L208.23 146.818C207.357 147.136 207.357 148.37 208.23 148.688L212.197 150.131L213.64 154.098C213.958 154.971 215.192 154.971 215.51 154.098L216.953 150.131L220.92 148.688C221.793 148.37 221.793 147.136 220.92 146.818L216.953 145.375L215.51 141.408Z" fill="#BBC9DC"/>
<path fill-rule="evenodd" clip-rule="evenodd" d="M148.51 202.408C148.192 201.535 146.958 201.535 146.64 202.408L145.197 206.375L141.23 207.818C140.357 208.136 140.357 209.37 141.23 209.688L145.197 211.131L146.64 215.098C146.958 215.971 148.192 215.971 148.51 215.098L149.953 211.131L153.92 209.688C154.793 209.37 154.793 208.136 153.92 207.818L149.953 206.375L148.51 202.408Z" fill="#BBC9DC"/>
<path d="M137.075 32.2534L149.075 2.75342L160.075 32.2534L149.075 61.2534L137.075 32.2534Z" stroke="#BBC9DC" stroke-width="2"/>
<path d="M46.0004 76.4425L41.3225 54.794L62.2639 60.179L67.4258 80.8973L46.0004 76.4425Z" stroke="#BBC9DC" stroke-width="2"/>
<path d="M31.8623 135.119L61.2087 147.49L31.5724 158.117L2.71336 146.752L31.8623 135.119Z" stroke="#BBC9DC" stroke-width="2"/>
<path d="M159.818 261.753L148.067 291.353L136.819 261.946L147.574 232.855L159.818 261.753Z" stroke="#BBC9DC" stroke-width="2"/>
<path d="M262.739 158.597L232.899 147.471L262.062 135.607L291.373 145.749L262.739 158.597Z" stroke="#BBC9DC" stroke-width="2"/>
<path fill-rule="evenodd" clip-rule="evenodd" d="M168.957 137.26C168.64 136.062 167.408 136.062 167.09 137.26L165.649 142.705L161.687 144.686C160.816 145.122 160.816 146.816 161.687 147.252L165.649 149.233L167.09 154.678C167.408 155.876 168.64 155.876 168.957 154.678L170.398 149.233L174.36 147.252C175.232 146.816 175.232 145.122 174.36 144.686L170.398 142.705L168.957 137.26Z" fill="#BBC9DC"/>
<path d="M128.817 129.135C128.455 128.287 127.933 127.59 127.306 127.118C126.679 126.646 125.971 126.416 125.257 126.454C124.543 126.492 123.849 126.796 123.251 127.333C122.653 127.87 122.172 128.62 121.86 129.504C121.548 130.388 121.416 131.371 121.478 132.35C121.541 133.329 121.796 134.266 122.215 135.062C122.635 135.858 123.204 136.482 123.861 136.868C124.518 137.255 125.239 137.389 125.947 137.256C126.295 137.191 126.412 136.582 126.134 136.288C125.659 135.785 125.327 135.068 125.195 134.263C125.064 133.458 125.142 132.615 125.416 131.881C125.69 131.148 126.142 130.569 126.694 130.246C127.246 129.924 127.864 129.877 128.438 130.115L128.481 130.129C128.805 130.215 129.066 129.729 128.893 129.321L128.839 129.197L128.828 129.163L128.817 129.135Z" fill="#BBC9DC"/>
<path d="M167.686 169.841C161.961 169.841 157.019 167.89 153.545 163.115C155.257 161.501 156.285 158.542 156.774 155.515H157.508C160.64 165.536 166.218 169.101 171.846 167.083C178.158 164.729 181.73 155.179 179.088 141.594C176.446 128.008 169.84 122.157 163.527 124.511C157.9 126.528 154.523 134.128 155.453 145.091C156.579 162.51 140.969 169.571 131.867 169.571C117.921 169.571 111.707 160.627 109.407 165.536L108.575 164.527L115.474 148.723H116.111C115.23 155.717 118.508 167.218 131.867 167.218C141.605 167.218 148.7 163.653 148.7 145.091C148.994 130.228 157.313 121.753 167.686 121.753C178.158 121.753 186.575 130.497 186.575 145.831C186.575 158.205 181.045 166.276 173.412 168.899C180.164 171.589 183.981 177.777 183.981 182.753H176.152C176.152 177.44 175.124 169.908 167.784 169.841H167.686ZM127.855 121.753C134.363 121.753 139.696 125.52 141.458 126.663C143.415 127.941 144.394 126.999 144.932 125.856L145.764 126.865L138.375 141.997H137.739C139.501 132.178 134.314 124.914 127.855 124.376C122.325 124.376 118.949 127.874 118.949 132.178C118.998 142.064 144.639 140.854 144.639 153.834C144.639 158.878 142.241 161.972 137.837 161.972V161.299C138.18 160.089 138.424 159.551 138.424 158.542C138.424 147.646 113.37 152.422 113.37 134.935C113.37 125.856 119.829 121.753 127.855 121.753Z" fill="#BBC9DC"/>
<rect x="68.0748" y="73.2534" width="54" height="54" rx="27" stroke="#BBC9DC"/>
<rect x="73.0748" y="78.2534" width="44" height="44" rx="22" stroke="#BBC9DC" stroke-dasharray="2 2"/>
<g clip-path="url(#clip1_112_2)">
<path d="M90.5827 108.236C92.0359 109.088 93.6991 109.514 95.383 109.468C93.8634 108.353 92.8489 106.68 92.5627 104.817C92.2765 102.954 92.742 101.054 93.8569 99.5345C94.9718 98.0149 96.6446 97.0004 98.5075 96.7142C100.37 96.428 102.271 96.8936 103.79 98.0084C103.329 96.3882 102.423 94.9299 101.174 93.7993C99.9253 92.6688 98.3842 91.9114 96.7263 91.6133C95.0684 91.3152 93.3601 91.4884 91.7957 92.1132C90.2313 92.738 88.8737 93.7893 87.8772 95.1475C86.8808 96.5057 86.2855 98.1163 86.1591 99.7961C86.0328 101.476 86.3803 103.157 87.1623 104.649C87.9444 106.141 89.1294 107.384 90.5827 108.236Z" stroke="#BBC9DC" stroke-width="1.5" stroke-linecap="round" stroke-linejoin="round"/>
</g>
<rect x="234.236" y="83.1946" width="54" height="54" rx="27" transform="rotate(108.464 234.236 83.1946)" stroke="#BBC9DC"/>
<rect x="227.91" y="86.3535" width="44" height="44" rx="22" transform="rotate(108.464 227.91 86.3535)" stroke="#BBC9DC" stroke-dasharray="2 2"/>
<path d="M193.926 93.4643C192.658 94.573 191.726 96.0154 191.237 97.6273C192.776 96.539 194.684 96.1066 196.541 96.4251C198.399 96.7437 200.054 97.7871 201.142 99.3258C202.231 100.865 202.663 102.773 202.345 104.63C202.026 106.488 200.983 108.143 199.444 109.231C201.127 109.307 202.797 108.909 204.265 108.083C205.733 107.256 206.939 106.034 207.747 104.556C208.555 103.078 208.932 101.403 208.834 99.7211C208.737 98.0394 208.17 96.4187 207.197 95.0434C206.225 93.6681 204.886 92.5934 203.332 91.9415C201.779 91.2896 200.074 91.0868 198.411 91.356C196.748 91.6252 195.194 92.3557 193.926 93.4643Z" stroke="#BBC9DC" stroke-width="1.5" stroke-linecap="round" stroke-linejoin="round"/>
<rect x="219.556" y="227.885" width="54" height="54" rx="27" transform="rotate(-172.39 219.556 227.885)" stroke="#BBC9DC"/>
<rect x="215.262" y="222.267" width="44" height="44" rx="22" transform="rotate(-172.39 215.262 222.267)" stroke="#BBC9DC" stroke-dasharray="2 2"/>
<path d="M201.878 190.23C200.55 189.193 198.958 188.55 197.283 188.373C198.642 189.679 199.426 191.472 199.463 193.356C199.5 195.241 198.787 197.063 197.481 198.421C196.174 199.78 194.382 200.564 192.497 200.601C190.613 200.638 188.791 199.925 187.433 198.618C187.675 200.285 188.38 201.851 189.468 203.137C190.556 204.423 191.984 205.378 193.587 205.893C195.191 206.408 196.908 206.462 198.541 206.05C200.174 205.638 201.659 204.776 202.827 203.561C203.994 202.347 204.797 200.829 205.145 199.181C205.493 197.533 205.371 195.82 204.793 194.238C204.216 192.655 203.206 191.267 201.878 190.23Z" stroke="#BBC9DC" stroke-width="1.5" stroke-linecap="round" stroke-linejoin="round"/>
<rect x="65.1789" y="215.823" width="54" height="54" rx="27" transform="rotate(-76.3105 65.1789 215.823)" stroke="#BBC9DC"/>
<rect x="71.2202" y="212.149" width="44" height="44" rx="22" transform="rotate(-76.3105 71.2202 212.149)" stroke="#BBC9DC" stroke-dasharray="2 2"/>
<path d="M104.494 202.234C105.666 201.024 106.474 199.509 106.827 197.862C105.384 199.074 103.519 199.664 101.641 199.501C99.7637 199.338 98.0276 198.436 96.815 196.994C95.6024 195.551 95.0126 193.685 95.1754 191.808C95.3382 189.93 96.2402 188.194 97.683 186.981C95.9998 187.046 94.3683 187.581 92.9744 188.527C91.5804 189.473 90.4798 190.791 89.7979 192.331C89.1159 193.871 88.8799 195.572 89.1167 197.24C89.3535 198.908 90.0536 200.476 91.1374 201.765C92.2212 203.055 93.6452 204.014 95.2473 204.535C96.8495 205.055 98.5655 205.115 100.2 204.708C101.835 204.302 103.323 203.444 104.494 202.234Z" stroke="#BBC9DC" stroke-width="1.5" stroke-linecap="round" stroke-linejoin="round"/>
<path d="M234.237 56.5575L256.147 53.0288L249.593 73.6811L228.586 77.7432L234.237 56.5575Z" stroke="#BBC9DC" stroke-width="2"/>
<path d="M243.641 226.144L249.308 247.6L228.111 243.11L222.002 222.605L243.641 226.144Z" stroke="#BBC9DC" stroke-width="2"/>
<path d="M63.6166 237.173L41.5827 239.816L48.9637 219.445L70.1167 216.232L63.6166 237.173Z" stroke="#BBC9DC" stroke-width="2"/>
<defs>
<clipPath id="clip0_112_2">
<rect width="14" height="14" fill="white" transform="translate(140.575 76.7534)"/>
</clipPath>
<clipPath id="clip1_112_2">
<rect width="24" height="24" fill="white" transform="translate(103.702 85.6394) rotate(75.5552)"/>
</clipPath>
</defs>
</svg>
