<svg width="355" height="141" viewBox="0 0 355 141" fill="none" xmlns="http://www.w3.org/2000/svg">
<path d="M113.808 105.75H27.1924L70.5 28.5098L113.808 105.75Z" stroke="#BBC9DC" stroke-width="0.5"/>
<path d="M28.0694 38.2538L114.684 38.0604L71.5494 115.397L28.0694 38.2538Z" stroke="#BBC9DC" stroke-width="0.5"/>
<path d="M96.308 114.075L20.71 71.8L96.208 25.5219L96.308 114.075Z" stroke="#BBC9DC" stroke-width="0.5"/>
<path d="M46.1014 26.2175L120.421 70.7004L43.5932 114.735L46.1014 26.2175Z" stroke="#BBC9DC" stroke-width="0.5"/>
<path d="M47.951 89.9153L47 88.9142L54.8876 73.2309H55.6148C54.6079 80.1716 58.3558 90.7161 70.327 91.5837C75.4735 91.5837 81.1235 87.7797 81.1235 82.9746C81.1235 72.1631 52.4821 76.9015 52.4821 59.5498C52.4821 50.5403 59.8662 46.4693 69.0404 46.4693C76.4804 46.4693 82.5779 50.2066 84.5917 51.3411C86.8293 52.6091 87.9481 51.6748 88.5635 50.5403L89.5145 51.5413L81.0675 66.5572H80.3403C82.3541 56.8136 76.4245 49.6059 69.0404 49.072C62.7192 49.072 58.8593 52.5424 58.8593 56.8136C58.9152 66.6239 89.3467 65.4227 89.3467 79.571C89.3467 91.517 76.5923 93.9195 70.8864 93.9195C57.6846 93.9195 50.5802 85.0434 47.951 89.9153Z" fill="#BBC9DC"/>
<path d="M100.012 60.2839C101.969 60.2839 103.088 61.6186 103.088 63.9544V83.375C103.088 92.0508 104.151 92.3178 108.57 92.3178V93.6525H89.7745V92.3178C94.1938 92.3178 95.2566 92.0508 95.2566 83.375V70.5614C95.2566 61.8856 94.1938 61.6186 89.7745 61.6186V60.2839H100.012ZM97.8299 55.946C95.1448 55.946 92.7953 53.143 92.7953 49.9396C92.7953 46.803 95.1448 44 97.8299 44C100.459 44 102.809 46.803 102.809 49.9396C102.809 53.143 100.459 55.946 97.8299 55.946Z" fill="#BBC9DC"/>
<path d="M132.293 85.1769C130.671 91.1833 127.035 94.3199 121.497 94.3199C113.05 94.3199 108.239 88.2468 108.239 76.9682C108.239 65.7564 113.05 59.8835 120.882 59.8835C126.755 59.8835 130.615 63.0201 132.293 68.9597V57.214C132.293 48.5381 131.23 48.2712 126.811 48.2712V46.9364H137.048C139.006 46.9364 140.125 48.2712 140.125 50.607V83.375C140.125 92.0508 141.188 92.3178 145.607 92.3178V93.6525H132.293V85.1769ZM124.126 91.5837C129.105 91.5837 131.678 85.5773 131.678 76.9682C131.678 68.4258 128.433 62.6197 124.126 62.6197C119.819 62.6197 116.63 68.4258 116.63 76.9682C116.63 85.5773 119.819 91.5837 124.126 91.5837Z" fill="#BBC9DC"/>
<path d="M157.514 86.9121C159.528 88.5805 161.878 89.3146 164.395 89.3146C170.381 89.3146 174.241 84.8432 174.464 78.9703H175.639C174.8 88.5805 168.199 94.053 160.2 94.053C151.529 94.053 143.529 87.8464 143.529 76.9682C143.529 66.0233 151.529 59.8167 161.151 59.8167C170.493 59.8167 172.786 64.6218 175.024 62.286L175.975 62.6864L170.269 70.2945L157.514 86.9121ZM168.199 66.0233C166.801 63.6208 164.059 62.1525 160.759 62.1525C153.766 62.1525 150.41 70.6949 152.927 79.2373C153.766 82.107 154.997 84.3093 156.508 85.911L168.311 70.4947C169.15 69.2934 168.814 67.0911 168.199 66.0233Z" fill="#BBC9DC"/>
<path d="M201.016 94.1864C188.933 94.1864 179.311 85.5773 179.311 70.3612C179.311 55.1451 188.933 46.4693 201.016 46.4693C212.987 46.4693 222.609 55.1451 222.609 70.3612C222.609 82.6409 216.288 90.6494 207.561 93.2521C215.281 95.9216 219.644 102.061 219.644 107H210.694C210.694 101.728 209.519 94.2532 201.128 94.1864H201.016ZM205.771 91.4502C212.987 89.1144 217.071 79.6377 214.05 66.1568C211.029 52.6758 203.478 46.8697 196.261 49.2055C188.933 51.5413 184.849 61.0847 187.87 74.5657C190.891 88.0466 198.443 93.786 205.771 91.4502Z" fill="#BBC9DC"/>
<path d="M225.447 70.6282C225.447 61.9523 224.384 61.6854 219.965 61.6854V60.3506H230.202C232.16 60.3506 233.278 61.6854 233.278 64.0212V73.8316C233.278 83.7754 233.67 90.8496 239.152 90.8496C244.41 90.8496 245.809 82.5074 246.145 72.3633V70.6282C246.145 61.9523 245.082 61.6854 240.662 61.6854V60.3506H250.899C252.857 60.3506 253.976 61.6854 253.976 64.0212V83.4417C253.976 92.1176 255.039 92.3845 259.458 92.3845V93.7193H246.145V84.91H246.033C244.634 90.3157 241.949 94.3199 236.299 94.3199C227.74 94.3199 225.894 89.3814 225.503 82.3072H225.447V70.6282Z" fill="#BBC9DC"/>
<path d="M273.157 86.9121C275.17 88.5805 277.52 89.3146 280.037 89.3146C286.023 89.3146 289.883 84.8432 290.106 78.9703H291.281C290.442 88.5805 283.841 94.053 275.842 94.053C267.171 94.053 259.172 87.8464 259.172 76.9682C259.172 66.0233 267.171 59.8167 276.793 59.8167C286.135 59.8167 288.428 64.6218 290.666 62.286L291.617 62.6864L285.911 70.2945L273.157 86.9121ZM283.841 66.0233C282.443 63.6208 279.702 62.1525 276.401 62.1525C269.409 62.1525 266.052 70.6949 268.569 79.2373C269.409 82.107 270.639 84.3093 272.15 85.911L283.953 70.4947C284.792 69.2934 284.456 67.0911 283.841 66.0233Z" fill="#BBC9DC"/>
<path d="M305.247 61.4852C302.171 61.4852 300.716 63.8877 300.716 66.2903C300.716 73.965 319.904 72.3634 319.904 83.9089C319.904 91.25 312.687 94.1197 306.982 94.1197C295.402 94.1197 292.885 86.0445 290.647 89.3814L290.255 88.9809L295.402 78.8369H295.961C294.731 85.3104 300.325 92.4513 306.031 92.4513C309.946 92.4513 312.296 90.1822 312.296 86.7786C312.24 80.7722 293.892 82.3072 293.836 69.4269C293.78 62.286 299.262 59.9502 305.247 59.8167C312.408 59.6165 316.323 66.9576 321.414 67.625V61.1515L329.246 55.6123V67.6917H336.742V69.3602H329.246V83.4417C329.358 89.3814 330.588 93.3189 333.777 93.2521C338.196 93.1186 338.364 86.2447 336.014 80.2383L336.518 79.9047L342 88.447L341.608 88.8475C339.091 87.6462 339.035 94.3867 332.099 94.3867C327.232 94.3867 321.47 91.8506 321.414 83.5085V69.2934C315.596 68.6928 312.352 61.4852 305.247 61.4852Z" fill="#BBC9DC"/>
<g clip-path="url(#clip0_126_12)">
<path d="M69.5057 52.5388C68.7874 51.9605 67.9286 51.5842 67.021 51.4501C66.1134 51.316 65.1909 51.4292 64.352 51.7774C63.5131 52.1257 62.7893 52.6961 62.2577 53.4277C61.7261 54.1594 61.4067 55.0248 61.3336 55.9317C61.2605 56.8386 61.4364 57.753 61.8425 58.5773C62.2486 59.4016 62.8698 60.1049 63.6397 60.6122C64.4096 61.1195 65.2994 61.4118 66.2141 61.4578C67.1288 61.5038 68.0342 61.3019 68.8337 60.8736C69.2259 60.6636 69.16 60.0819 68.7292 59.9492C67.9915 59.721 67.3524 59.2441 66.9232 58.6013C66.494 57.9585 66.3017 57.1905 66.3798 56.4309C66.4579 55.6712 66.8015 54.9679 67.3507 54.4433C67.9 53.9187 68.6202 53.6059 69.3862 53.5593L69.4418 53.5528C69.8578 53.4838 70.0046 52.9458 69.6591 52.6675L69.5536 52.5825L69.5285 52.5585L69.5057 52.5388Z" fill="#BBC9DC"/>
</g>
<path fill-rule="evenodd" clip-rule="evenodd" d="M201.924 61.8987C201.606 60.7004 200.374 60.7004 200.057 61.8987L198.615 67.3436L194.654 69.3241C193.782 69.7606 193.782 71.4543 194.654 71.8908L198.615 73.8714L200.057 79.3163C200.374 80.5145 201.606 80.5145 201.924 79.3163L203.365 73.8714L207.327 71.8908C208.198 71.4543 208.198 69.7606 207.327 69.3241L203.365 67.3436L201.924 61.8987Z" fill="#BBC9DC"/>
<defs>
<clipPath id="clip0_126_12">
<rect width="10.7536" height="10.7536" fill="white" transform="translate(60.2498 51.1233)"/>
</clipPath>
</defs>
</svg>
